<mxfile host="app.diagrams.net" modified="2024-02-02T05:13:30.474Z" agent="Mozilla/5.0 (Macintosh; Intel Mac OS X 10_15_7) AppleWebKit/605.1.15 (KHTML, like Gecko) Version/17.2.1 Safari/605.1.15" etag="bwAB8AD6K1TJ46LIbWqx" version="23.1.1" type="device" pages="2">
  <diagram id="C5RBs43oDa-KdzZeNtuy" name="Page-1">
    <mxGraphModel dx="955" dy="638" grid="1" gridSize="10" guides="1" tooltips="1" connect="1" arrows="1" fold="1" page="1" pageScale="1" pageWidth="827" pageHeight="1169" math="0" shadow="0">
      <root>
        <mxCell id="WIyWlLk6GJQsqaUBKTNV-0" />
        <mxCell id="WIyWlLk6GJQsqaUBKTNV-1" parent="WIyWlLk6GJQsqaUBKTNV-0" />
        <mxCell id="dWH7YQZCYVR7Mkkr_BDG-13" value="Login Process" style="swimlane;whiteSpace=wrap;html=1;" parent="WIyWlLk6GJQsqaUBKTNV-1" vertex="1">
          <mxGeometry x="40" y="60" width="760" height="1090" as="geometry">
            <mxRectangle x="24" y="20" width="120" height="30" as="alternateBounds" />
          </mxGeometry>
        </mxCell>
        <mxCell id="dWH7YQZCYVR7Mkkr_BDG-18" value="" style="edgeStyle=orthogonalEdgeStyle;rounded=0;orthogonalLoop=1;jettySize=auto;html=1;" parent="dWH7YQZCYVR7Mkkr_BDG-13" source="WIyWlLk6GJQsqaUBKTNV-3" target="dWH7YQZCYVR7Mkkr_BDG-17" edge="1">
          <mxGeometry relative="1" as="geometry" />
        </mxCell>
        <mxCell id="OVqhG6OKckDvtCEO9sMe-0" style="rounded=0;orthogonalLoop=1;jettySize=auto;html=1;exitX=0.75;exitY=1;exitDx=0;exitDy=0;entryX=1;entryY=0;entryDx=0;entryDy=0;dashed=1;fillColor=#60a917;strokeColor=#63EB0F;strokeWidth=3;flowAnimation=1;endArrow=none;endFill=0;" parent="dWH7YQZCYVR7Mkkr_BDG-13" edge="1">
          <mxGeometry relative="1" as="geometry">
            <mxPoint x="193.5" y="70" as="sourcePoint" />
            <mxPoint x="186.60660171779818" y="1049.3933982822018" as="targetPoint" />
          </mxGeometry>
        </mxCell>
        <mxCell id="OVqhG6OKckDvtCEO9sMe-2" style="edgeStyle=orthogonalEdgeStyle;rounded=0;orthogonalLoop=1;jettySize=auto;html=1;exitX=0.75;exitY=1;exitDx=0;exitDy=0;entryX=0;entryY=0;entryDx=0;entryDy=0;curved=1;dashed=1;strokeWidth=3;strokeColor=#FF2414;flowAnimation=1;" parent="dWH7YQZCYVR7Mkkr_BDG-13" source="WIyWlLk6GJQsqaUBKTNV-3" target="dWH7YQZCYVR7Mkkr_BDG-35" edge="1">
          <mxGeometry relative="1" as="geometry">
            <Array as="points">
              <mxPoint x="198" y="300" />
              <mxPoint x="194" y="300" />
              <mxPoint x="194" y="640" />
              <mxPoint x="305" y="640" />
            </Array>
          </mxGeometry>
        </mxCell>
        <mxCell id="OVqhG6OKckDvtCEO9sMe-5" style="edgeStyle=orthogonalEdgeStyle;rounded=0;orthogonalLoop=1;jettySize=auto;html=1;exitX=0.75;exitY=1;exitDx=0;exitDy=0;entryX=0;entryY=0.25;entryDx=0;entryDy=0;curved=1;strokeColor=#FF1B0A;strokeWidth=3;endArrow=none;endFill=0;dashed=1;flowAnimation=1;" parent="dWH7YQZCYVR7Mkkr_BDG-13" source="WIyWlLk6GJQsqaUBKTNV-3" target="dWH7YQZCYVR7Mkkr_BDG-37" edge="1">
          <mxGeometry relative="1" as="geometry">
            <Array as="points">
              <mxPoint x="198" y="410" />
              <mxPoint x="194" y="410" />
              <mxPoint x="194" y="750" />
              <mxPoint x="294" y="750" />
            </Array>
          </mxGeometry>
        </mxCell>
        <mxCell id="OVqhG6OKckDvtCEO9sMe-8" style="edgeStyle=orthogonalEdgeStyle;rounded=0;orthogonalLoop=1;jettySize=auto;html=1;exitX=0.75;exitY=1;exitDx=0;exitDy=0;entryX=0;entryY=0.25;entryDx=0;entryDy=0;curved=1;dashed=1;strokeWidth=3;strokeColor=#FF2908;endArrow=none;endFill=0;flowAnimation=1;" parent="dWH7YQZCYVR7Mkkr_BDG-13" source="WIyWlLk6GJQsqaUBKTNV-3" target="dWH7YQZCYVR7Mkkr_BDG-39" edge="1">
          <mxGeometry relative="1" as="geometry">
            <Array as="points">
              <mxPoint x="198" y="520" />
              <mxPoint x="194" y="520" />
              <mxPoint x="194" y="870" />
            </Array>
          </mxGeometry>
        </mxCell>
        <mxCell id="WIyWlLk6GJQsqaUBKTNV-3" value="START" style="rounded=1;whiteSpace=wrap;html=1;fontSize=12;glass=0;strokeWidth=1;shadow=0;arcSize=50;" parent="dWH7YQZCYVR7Mkkr_BDG-13" vertex="1">
          <mxGeometry x="145" y="40" width="70" height="30" as="geometry" />
        </mxCell>
        <mxCell id="mfm6rsFPcUOExTP-C9rT-1" value="" style="edgeStyle=orthogonalEdgeStyle;rounded=0;orthogonalLoop=1;jettySize=auto;html=1;" edge="1" parent="dWH7YQZCYVR7Mkkr_BDG-13" source="dWH7YQZCYVR7Mkkr_BDG-17" target="mfm6rsFPcUOExTP-C9rT-0">
          <mxGeometry relative="1" as="geometry" />
        </mxCell>
        <mxCell id="dWH7YQZCYVR7Mkkr_BDG-17" value="Login Form" style="shape=parallelogram;perimeter=parallelogramPerimeter;whiteSpace=wrap;html=1;fixedSize=1;" parent="dWH7YQZCYVR7Mkkr_BDG-13" vertex="1">
          <mxGeometry x="100" y="110" width="160" height="60" as="geometry" />
        </mxCell>
        <mxCell id="dWH7YQZCYVR7Mkkr_BDG-26" style="edgeStyle=orthogonalEdgeStyle;rounded=0;orthogonalLoop=1;jettySize=auto;html=1;entryX=1;entryY=0.5;entryDx=0;entryDy=0;" parent="dWH7YQZCYVR7Mkkr_BDG-13" source="dWH7YQZCYVR7Mkkr_BDG-24" target="dWH7YQZCYVR7Mkkr_BDG-25" edge="1">
          <mxGeometry relative="1" as="geometry" />
        </mxCell>
        <mxCell id="OVqhG6OKckDvtCEO9sMe-4" style="edgeStyle=orthogonalEdgeStyle;rounded=0;orthogonalLoop=1;jettySize=auto;html=1;entryX=1;entryY=0.75;entryDx=0;entryDy=0;dashed=1;strokeColor=#74FF24;strokeWidth=3;endArrow=none;endFill=0;flowAnimation=1;" parent="dWH7YQZCYVR7Mkkr_BDG-13" target="dWH7YQZCYVR7Mkkr_BDG-25" edge="1">
          <mxGeometry relative="1" as="geometry">
            <mxPoint x="336" y="566" as="sourcePoint" />
            <Array as="points">
              <mxPoint x="336" y="567" />
              <mxPoint x="340" y="567" />
              <mxPoint x="340" y="570" />
            </Array>
          </mxGeometry>
        </mxCell>
        <mxCell id="dWH7YQZCYVR7Mkkr_BDG-24" value="Database" style="strokeWidth=2;html=1;shape=mxgraph.flowchart.database;whiteSpace=wrap;" parent="dWH7YQZCYVR7Mkkr_BDG-13" vertex="1">
          <mxGeometry x="336" y="530" width="60" height="50" as="geometry" />
        </mxCell>
        <mxCell id="dWH7YQZCYVR7Mkkr_BDG-30" value="" style="edgeStyle=orthogonalEdgeStyle;rounded=0;orthogonalLoop=1;jettySize=auto;html=1;" parent="dWH7YQZCYVR7Mkkr_BDG-13" source="dWH7YQZCYVR7Mkkr_BDG-25" target="dWH7YQZCYVR7Mkkr_BDG-29" edge="1">
          <mxGeometry relative="1" as="geometry" />
        </mxCell>
        <mxCell id="dWH7YQZCYVR7Mkkr_BDG-25" value="Find user in the User database" style="rounded=0;whiteSpace=wrap;html=1;" parent="dWH7YQZCYVR7Mkkr_BDG-13" vertex="1">
          <mxGeometry x="120" y="525" width="120" height="60" as="geometry" />
        </mxCell>
        <mxCell id="dWH7YQZCYVR7Mkkr_BDG-32" value="" style="edgeStyle=orthogonalEdgeStyle;rounded=0;orthogonalLoop=1;jettySize=auto;html=1;" parent="dWH7YQZCYVR7Mkkr_BDG-13" source="dWH7YQZCYVR7Mkkr_BDG-29" target="dWH7YQZCYVR7Mkkr_BDG-31" edge="1">
          <mxGeometry relative="1" as="geometry" />
        </mxCell>
        <mxCell id="dWH7YQZCYVR7Mkkr_BDG-51" value="YES" style="edgeLabel;html=1;align=center;verticalAlign=middle;resizable=0;points=[];" parent="dWH7YQZCYVR7Mkkr_BDG-32" vertex="1" connectable="0">
          <mxGeometry x="-0.25" y="-1" relative="1" as="geometry">
            <mxPoint as="offset" />
          </mxGeometry>
        </mxCell>
        <mxCell id="dWH7YQZCYVR7Mkkr_BDG-36" value="" style="edgeStyle=orthogonalEdgeStyle;rounded=0;orthogonalLoop=1;jettySize=auto;html=1;" parent="dWH7YQZCYVR7Mkkr_BDG-13" source="dWH7YQZCYVR7Mkkr_BDG-29" target="dWH7YQZCYVR7Mkkr_BDG-35" edge="1">
          <mxGeometry relative="1" as="geometry" />
        </mxCell>
        <mxCell id="dWH7YQZCYVR7Mkkr_BDG-50" value="NO" style="edgeLabel;html=1;align=center;verticalAlign=middle;resizable=0;points=[];" parent="dWH7YQZCYVR7Mkkr_BDG-36" vertex="1" connectable="0">
          <mxGeometry x="-0.2051" y="-2" relative="1" as="geometry">
            <mxPoint as="offset" />
          </mxGeometry>
        </mxCell>
        <mxCell id="dWH7YQZCYVR7Mkkr_BDG-29" value="Is User &lt;br&gt;Exist?" style="rhombus;whiteSpace=wrap;html=1;rounded=0;" parent="dWH7YQZCYVR7Mkkr_BDG-13" vertex="1">
          <mxGeometry x="140" y="615" width="80" height="80" as="geometry" />
        </mxCell>
        <mxCell id="dWH7YQZCYVR7Mkkr_BDG-34" value="" style="edgeStyle=orthogonalEdgeStyle;rounded=0;orthogonalLoop=1;jettySize=auto;html=1;" parent="dWH7YQZCYVR7Mkkr_BDG-13" source="dWH7YQZCYVR7Mkkr_BDG-31" target="dWH7YQZCYVR7Mkkr_BDG-33" edge="1">
          <mxGeometry relative="1" as="geometry" />
        </mxCell>
        <mxCell id="dWH7YQZCYVR7Mkkr_BDG-53" value="YES" style="edgeLabel;html=1;align=center;verticalAlign=middle;resizable=0;points=[];" parent="dWH7YQZCYVR7Mkkr_BDG-34" vertex="1" connectable="0">
          <mxGeometry x="0.24" relative="1" as="geometry">
            <mxPoint as="offset" />
          </mxGeometry>
        </mxCell>
        <mxCell id="dWH7YQZCYVR7Mkkr_BDG-38" value="" style="edgeStyle=orthogonalEdgeStyle;rounded=0;orthogonalLoop=1;jettySize=auto;html=1;" parent="dWH7YQZCYVR7Mkkr_BDG-13" source="dWH7YQZCYVR7Mkkr_BDG-31" target="dWH7YQZCYVR7Mkkr_BDG-37" edge="1">
          <mxGeometry relative="1" as="geometry" />
        </mxCell>
        <mxCell id="dWH7YQZCYVR7Mkkr_BDG-52" value="NO" style="edgeLabel;html=1;align=center;verticalAlign=middle;resizable=0;points=[];" parent="dWH7YQZCYVR7Mkkr_BDG-38" vertex="1" connectable="0">
          <mxGeometry x="-0.3143" y="2" relative="1" as="geometry">
            <mxPoint as="offset" />
          </mxGeometry>
        </mxCell>
        <mxCell id="dWH7YQZCYVR7Mkkr_BDG-31" value="Is Active?" style="rhombus;whiteSpace=wrap;html=1;rounded=0;" parent="dWH7YQZCYVR7Mkkr_BDG-13" vertex="1">
          <mxGeometry x="140" y="731" width="80" height="80" as="geometry" />
        </mxCell>
        <mxCell id="dWH7YQZCYVR7Mkkr_BDG-40" value="" style="edgeStyle=orthogonalEdgeStyle;rounded=0;orthogonalLoop=1;jettySize=auto;html=1;" parent="dWH7YQZCYVR7Mkkr_BDG-13" source="dWH7YQZCYVR7Mkkr_BDG-33" target="dWH7YQZCYVR7Mkkr_BDG-39" edge="1">
          <mxGeometry relative="1" as="geometry" />
        </mxCell>
        <mxCell id="dWH7YQZCYVR7Mkkr_BDG-55" value="NO" style="edgeLabel;html=1;align=center;verticalAlign=middle;resizable=0;points=[];" parent="dWH7YQZCYVR7Mkkr_BDG-40" vertex="1" connectable="0">
          <mxGeometry x="-0.0286" relative="1" as="geometry">
            <mxPoint as="offset" />
          </mxGeometry>
        </mxCell>
        <mxCell id="dWH7YQZCYVR7Mkkr_BDG-42" value="" style="edgeStyle=orthogonalEdgeStyle;rounded=0;orthogonalLoop=1;jettySize=auto;html=1;" parent="dWH7YQZCYVR7Mkkr_BDG-13" source="dWH7YQZCYVR7Mkkr_BDG-33" target="dWH7YQZCYVR7Mkkr_BDG-41" edge="1">
          <mxGeometry relative="1" as="geometry" />
        </mxCell>
        <mxCell id="dWH7YQZCYVR7Mkkr_BDG-54" value="YES" style="edgeLabel;html=1;align=center;verticalAlign=middle;resizable=0;points=[];" parent="dWH7YQZCYVR7Mkkr_BDG-42" vertex="1" connectable="0">
          <mxGeometry x="-0.2" y="3" relative="1" as="geometry">
            <mxPoint as="offset" />
          </mxGeometry>
        </mxCell>
        <mxCell id="dWH7YQZCYVR7Mkkr_BDG-33" value="Password&lt;br&gt;matched?" style="rhombus;whiteSpace=wrap;html=1;rounded=0;" parent="dWH7YQZCYVR7Mkkr_BDG-13" vertex="1">
          <mxGeometry x="132" y="841" width="96" height="80" as="geometry" />
        </mxCell>
        <mxCell id="OVqhG6OKckDvtCEO9sMe-3" style="edgeStyle=orthogonalEdgeStyle;rounded=0;orthogonalLoop=1;jettySize=auto;html=1;exitX=1;exitY=0.25;exitDx=0;exitDy=0;entryX=0.75;entryY=0;entryDx=0;entryDy=0;strokeColor=#f50505;dashed=1;strokeWidth=3;endArrow=none;endFill=0;flowAnimation=1;" parent="dWH7YQZCYVR7Mkkr_BDG-13" source="dWH7YQZCYVR7Mkkr_BDG-35" target="dWH7YQZCYVR7Mkkr_BDG-43" edge="1">
          <mxGeometry relative="1" as="geometry" />
        </mxCell>
        <mxCell id="dWH7YQZCYVR7Mkkr_BDG-35" value="Invalid User" style="shape=parallelogram;perimeter=parallelogramPerimeter;whiteSpace=wrap;html=1;fixedSize=1;rounded=0;" parent="dWH7YQZCYVR7Mkkr_BDG-13" vertex="1">
          <mxGeometry x="288" y="625" width="120" height="60" as="geometry" />
        </mxCell>
        <mxCell id="dWH7YQZCYVR7Mkkr_BDG-46" style="edgeStyle=orthogonalEdgeStyle;rounded=0;orthogonalLoop=1;jettySize=auto;html=1;exitX=1;exitY=0.5;exitDx=0;exitDy=0;entryX=0.5;entryY=0;entryDx=0;entryDy=0;" parent="dWH7YQZCYVR7Mkkr_BDG-13" source="dWH7YQZCYVR7Mkkr_BDG-37" target="dWH7YQZCYVR7Mkkr_BDG-43" edge="1">
          <mxGeometry relative="1" as="geometry" />
        </mxCell>
        <mxCell id="OVqhG6OKckDvtCEO9sMe-6" style="edgeStyle=orthogonalEdgeStyle;rounded=0;orthogonalLoop=1;jettySize=auto;html=1;exitX=1;exitY=0.25;exitDx=0;exitDy=0;entryX=0.75;entryY=0;entryDx=0;entryDy=0;flowAnimation=1;strokeWidth=3;strokeColor=#fc0303;dashed=1;endArrow=none;endFill=0;" parent="dWH7YQZCYVR7Mkkr_BDG-13" source="dWH7YQZCYVR7Mkkr_BDG-37" target="dWH7YQZCYVR7Mkkr_BDG-43" edge="1">
          <mxGeometry relative="1" as="geometry" />
        </mxCell>
        <mxCell id="dWH7YQZCYVR7Mkkr_BDG-37" value="Inactive User/&lt;br&gt;Contact Operations" style="shape=parallelogram;perimeter=parallelogramPerimeter;whiteSpace=wrap;html=1;fixedSize=1;rounded=0;" parent="dWH7YQZCYVR7Mkkr_BDG-13" vertex="1">
          <mxGeometry x="280" y="741" width="136" height="60" as="geometry" />
        </mxCell>
        <mxCell id="dWH7YQZCYVR7Mkkr_BDG-49" style="edgeStyle=orthogonalEdgeStyle;rounded=0;orthogonalLoop=1;jettySize=auto;html=1;entryX=0.5;entryY=0;entryDx=0;entryDy=0;" parent="dWH7YQZCYVR7Mkkr_BDG-13" source="dWH7YQZCYVR7Mkkr_BDG-39" target="dWH7YQZCYVR7Mkkr_BDG-43" edge="1">
          <mxGeometry relative="1" as="geometry" />
        </mxCell>
        <mxCell id="OVqhG6OKckDvtCEO9sMe-7" style="edgeStyle=orthogonalEdgeStyle;rounded=0;orthogonalLoop=1;jettySize=auto;html=1;exitX=1;exitY=0.25;exitDx=0;exitDy=0;entryX=0.75;entryY=0;entryDx=0;entryDy=0;endArrow=none;endFill=0;strokeWidth=3;strokeColor=#FF120A;dashed=1;flowAnimation=1;" parent="dWH7YQZCYVR7Mkkr_BDG-13" source="dWH7YQZCYVR7Mkkr_BDG-39" target="dWH7YQZCYVR7Mkkr_BDG-43" edge="1">
          <mxGeometry relative="1" as="geometry" />
        </mxCell>
        <mxCell id="dWH7YQZCYVR7Mkkr_BDG-39" value="Password mismatched" style="shape=parallelogram;perimeter=parallelogramPerimeter;whiteSpace=wrap;html=1;fixedSize=1;rounded=0;" parent="dWH7YQZCYVR7Mkkr_BDG-13" vertex="1">
          <mxGeometry x="288" y="851" width="120" height="60" as="geometry" />
        </mxCell>
        <mxCell id="dWH7YQZCYVR7Mkkr_BDG-57" value="" style="edgeStyle=orthogonalEdgeStyle;rounded=0;orthogonalLoop=1;jettySize=auto;html=1;" parent="dWH7YQZCYVR7Mkkr_BDG-13" source="dWH7YQZCYVR7Mkkr_BDG-41" target="dWH7YQZCYVR7Mkkr_BDG-56" edge="1">
          <mxGeometry relative="1" as="geometry" />
        </mxCell>
        <mxCell id="dWH7YQZCYVR7Mkkr_BDG-41" value="Generate MFA Token Process" style="shape=process;whiteSpace=wrap;html=1;backgroundOutline=1;rounded=0;" parent="dWH7YQZCYVR7Mkkr_BDG-13" vertex="1">
          <mxGeometry x="120" y="961" width="120" height="60" as="geometry" />
        </mxCell>
        <mxCell id="dWH7YQZCYVR7Mkkr_BDG-43" value="END" style="rounded=1;whiteSpace=wrap;html=1;fontSize=12;glass=0;strokeWidth=1;shadow=0;arcSize=50;" parent="dWH7YQZCYVR7Mkkr_BDG-13" vertex="1">
          <mxGeometry x="420" y="991" width="70" height="30" as="geometry" />
        </mxCell>
        <mxCell id="dWH7YQZCYVR7Mkkr_BDG-44" style="edgeStyle=orthogonalEdgeStyle;rounded=0;orthogonalLoop=1;jettySize=auto;html=1;exitX=1;exitY=0.5;exitDx=0;exitDy=0;entryX=0.5;entryY=0;entryDx=0;entryDy=0;" parent="dWH7YQZCYVR7Mkkr_BDG-13" source="dWH7YQZCYVR7Mkkr_BDG-35" target="dWH7YQZCYVR7Mkkr_BDG-43" edge="1">
          <mxGeometry relative="1" as="geometry">
            <mxPoint x="495" y="975" as="targetPoint" />
          </mxGeometry>
        </mxCell>
        <mxCell id="dWH7YQZCYVR7Mkkr_BDG-56" value="1" style="ellipse;whiteSpace=wrap;html=1;aspect=fixed;" parent="dWH7YQZCYVR7Mkkr_BDG-13" vertex="1">
          <mxGeometry x="165" y="1045" width="30" height="30" as="geometry" />
        </mxCell>
        <mxCell id="OVqhG6OKckDvtCEO9sMe-9" value="" style="endArrow=none;html=1;rounded=0;dashed=1;strokeWidth=3;fillColor=#60a917;strokeColor=#2D7600;" parent="dWH7YQZCYVR7Mkkr_BDG-13" edge="1">
          <mxGeometry width="50" height="50" relative="1" as="geometry">
            <mxPoint x="336" y="50" as="sourcePoint" />
            <mxPoint x="393" y="50" as="targetPoint" />
          </mxGeometry>
        </mxCell>
        <mxCell id="OVqhG6OKckDvtCEO9sMe-11" value="Succesful flow" style="edgeLabel;html=1;align=center;verticalAlign=middle;resizable=0;points=[];" parent="OVqhG6OKckDvtCEO9sMe-9" vertex="1" connectable="0">
          <mxGeometry x="0.6082" y="-1" relative="1" as="geometry">
            <mxPoint x="30" y="-1" as="offset" />
          </mxGeometry>
        </mxCell>
        <mxCell id="OVqhG6OKckDvtCEO9sMe-10" value="" style="endArrow=none;html=1;rounded=0;dashed=1;strokeColor=#FF3414;strokeWidth=3;" parent="dWH7YQZCYVR7Mkkr_BDG-13" edge="1">
          <mxGeometry width="50" height="50" relative="1" as="geometry">
            <mxPoint x="336" y="65" as="sourcePoint" />
            <mxPoint x="393" y="65" as="targetPoint" />
          </mxGeometry>
        </mxCell>
        <mxCell id="OVqhG6OKckDvtCEO9sMe-12" value="Failure flow" style="edgeLabel;html=1;align=center;verticalAlign=middle;resizable=0;points=[];" parent="OVqhG6OKckDvtCEO9sMe-10" vertex="1" connectable="0">
          <mxGeometry x="0.4971" y="1" relative="1" as="geometry">
            <mxPoint x="26" y="1" as="offset" />
          </mxGeometry>
        </mxCell>
        <mxCell id="mfm6rsFPcUOExTP-C9rT-61" value="" style="edgeStyle=orthogonalEdgeStyle;rounded=0;orthogonalLoop=1;jettySize=auto;html=1;" edge="1" parent="dWH7YQZCYVR7Mkkr_BDG-13" source="mfm6rsFPcUOExTP-C9rT-0" target="mfm6rsFPcUOExTP-C9rT-60">
          <mxGeometry relative="1" as="geometry" />
        </mxCell>
        <mxCell id="mfm6rsFPcUOExTP-C9rT-0" value="Enters &lt;br&gt;userid, and password.&lt;br&gt;Click on &quot;Login&quot; button" style="shape=parallelogram;perimeter=parallelogramPerimeter;whiteSpace=wrap;html=1;fixedSize=1;" vertex="1" parent="dWH7YQZCYVR7Mkkr_BDG-13">
          <mxGeometry x="95" y="200" width="170" height="60" as="geometry" />
        </mxCell>
        <mxCell id="mfm6rsFPcUOExTP-C9rT-5" value="Accept" style="edgeStyle=orthogonalEdgeStyle;rounded=0;orthogonalLoop=1;jettySize=auto;html=1;" edge="1" parent="dWH7YQZCYVR7Mkkr_BDG-13" source="mfm6rsFPcUOExTP-C9rT-2" target="dWH7YQZCYVR7Mkkr_BDG-25">
          <mxGeometry relative="1" as="geometry" />
        </mxCell>
        <mxCell id="mfm6rsFPcUOExTP-C9rT-6" style="edgeStyle=orthogonalEdgeStyle;rounded=0;orthogonalLoop=1;jettySize=auto;html=1;entryX=0;entryY=0.5;entryDx=0;entryDy=0;" edge="1" parent="dWH7YQZCYVR7Mkkr_BDG-13" source="mfm6rsFPcUOExTP-C9rT-2" target="dWH7YQZCYVR7Mkkr_BDG-17">
          <mxGeometry relative="1" as="geometry">
            <Array as="points">
              <mxPoint x="30" y="440" />
              <mxPoint x="30" y="140" />
            </Array>
          </mxGeometry>
        </mxCell>
        <mxCell id="mfm6rsFPcUOExTP-C9rT-7" value="Cancel" style="edgeLabel;html=1;align=center;verticalAlign=middle;resizable=0;points=[];" vertex="1" connectable="0" parent="mfm6rsFPcUOExTP-C9rT-6">
          <mxGeometry x="-0.7303" y="3" relative="1" as="geometry">
            <mxPoint x="18" y="-4" as="offset" />
          </mxGeometry>
        </mxCell>
        <mxCell id="mfm6rsFPcUOExTP-C9rT-64" style="edgeStyle=orthogonalEdgeStyle;curved=1;rounded=0;orthogonalLoop=1;jettySize=auto;html=1;exitX=0;exitY=0;exitDx=0;exitDy=0;entryX=0;entryY=0.75;entryDx=0;entryDy=0;endArrow=none;endFill=0;dashed=1;strokeWidth=3;flowAnimation=1;strokeColor=#ff2600;" edge="1" parent="dWH7YQZCYVR7Mkkr_BDG-13" source="mfm6rsFPcUOExTP-C9rT-2" target="dWH7YQZCYVR7Mkkr_BDG-17">
          <mxGeometry relative="1" as="geometry">
            <Array as="points">
              <mxPoint x="157" y="430" />
              <mxPoint x="50" y="430" />
              <mxPoint x="50" y="154" />
            </Array>
          </mxGeometry>
        </mxCell>
        <mxCell id="mfm6rsFPcUOExTP-C9rT-2" value="Accept?" style="rhombus;whiteSpace=wrap;html=1;rounded=0;" vertex="1" parent="dWH7YQZCYVR7Mkkr_BDG-13">
          <mxGeometry x="135" y="393" width="90" height="90" as="geometry" />
        </mxCell>
        <mxCell id="mfm6rsFPcUOExTP-C9rT-62" value="" style="edgeStyle=orthogonalEdgeStyle;rounded=0;orthogonalLoop=1;jettySize=auto;html=1;" edge="1" parent="dWH7YQZCYVR7Mkkr_BDG-13">
          <mxGeometry relative="1" as="geometry">
            <mxPoint x="184" y="360" as="sourcePoint" />
            <mxPoint x="179" y="397" as="targetPoint" />
          </mxGeometry>
        </mxCell>
        <mxCell id="mfm6rsFPcUOExTP-C9rT-60" value="Disclaimer Pop-up" style="shape=parallelogram;perimeter=parallelogramPerimeter;whiteSpace=wrap;html=1;fixedSize=1;" vertex="1" parent="dWH7YQZCYVR7Mkkr_BDG-13">
          <mxGeometry x="95" y="300" width="170" height="60" as="geometry" />
        </mxCell>
      </root>
    </mxGraphModel>
  </diagram>
  <diagram id="fzyGTq3qy7PhthbbgLTO" name="Page-2">
    <mxGraphModel dx="2021" dy="797" grid="1" gridSize="10" guides="1" tooltips="1" connect="1" arrows="1" fold="1" page="1" pageScale="1" pageWidth="827" pageHeight="1169" math="0" shadow="0">
      <root>
        <mxCell id="0" />
        <mxCell id="1" parent="0" />
        <mxCell id="BUbXl7JmyB8yxIihBI70-1" value="Generate MFA Token Process" style="swimlane;whiteSpace=wrap;html=1;fillColor=default;" parent="1" vertex="1">
          <mxGeometry x="-790" y="40" width="650" height="1090" as="geometry">
            <mxRectangle x="24" y="20" width="120" height="30" as="alternateBounds" />
          </mxGeometry>
        </mxCell>
        <mxCell id="nKK0pmu8n8xV0yD4BEuD-9" style="edgeStyle=orthogonalEdgeStyle;rounded=0;orthogonalLoop=1;jettySize=auto;html=1;exitX=1;exitY=1;exitDx=0;exitDy=0;entryX=1;entryY=0.75;entryDx=0;entryDy=0;endArrow=none;endFill=0;dashed=1;strokeWidth=3;strokeColor=#FF2008;flowAnimation=1;" parent="BUbXl7JmyB8yxIihBI70-1" source="nKK0pmu8n8xV0yD4BEuD-4" target="_0PAr6XL9lyC_KDBDkuF-1" edge="1">
          <mxGeometry relative="1" as="geometry" />
        </mxCell>
        <mxCell id="nKK0pmu8n8xV0yD4BEuD-4" value="" style="shape=process;whiteSpace=wrap;html=1;backgroundOutline=1;fillColor=none;size=0.020000000000000455;" parent="BUbXl7JmyB8yxIihBI70-1" vertex="1">
          <mxGeometry x="10" y="160" width="600" height="360" as="geometry" />
        </mxCell>
        <mxCell id="BUbXl7JmyB8yxIihBI70-37" value="" style="edgeStyle=orthogonalEdgeStyle;rounded=0;orthogonalLoop=1;jettySize=auto;html=1;" parent="BUbXl7JmyB8yxIihBI70-1" source="BUbXl7JmyB8yxIihBI70-35" target="BUbXl7JmyB8yxIihBI70-36" edge="1">
          <mxGeometry relative="1" as="geometry" />
        </mxCell>
        <mxCell id="63Sym3_QJ1IBtuDzFbQc-2" style="edgeStyle=orthogonalEdgeStyle;rounded=0;orthogonalLoop=1;jettySize=auto;html=1;exitX=1;exitY=0.5;exitDx=0;exitDy=0;entryX=1;entryY=0.75;entryDx=0;entryDy=0;fillColor=#60a917;strokeColor=#63eb0f;strokeWidth=3;dashed=1;flowAnimation=1;endArrow=none;endFill=0;" parent="BUbXl7JmyB8yxIihBI70-1" source="BUbXl7JmyB8yxIihBI70-35" target="_0PAr6XL9lyC_KDBDkuF-1" edge="1">
          <mxGeometry relative="1" as="geometry">
            <Array as="points">
              <mxPoint x="300" y="49" />
              <mxPoint x="300" y="1065" />
            </Array>
          </mxGeometry>
        </mxCell>
        <mxCell id="BUbXl7JmyB8yxIihBI70-35" value="1" style="ellipse;whiteSpace=wrap;html=1;aspect=fixed;" parent="BUbXl7JmyB8yxIihBI70-1" vertex="1">
          <mxGeometry x="271" y="34" width="30" height="30" as="geometry" />
        </mxCell>
        <mxCell id="-Q2xNWVYHDLpzL2ybHYI-7" value="" style="edgeStyle=orthogonalEdgeStyle;rounded=0;orthogonalLoop=1;jettySize=auto;html=1;" parent="BUbXl7JmyB8yxIihBI70-1" source="BUbXl7JmyB8yxIihBI70-36" target="BUbXl7JmyB8yxIihBI70-38" edge="1">
          <mxGeometry relative="1" as="geometry" />
        </mxCell>
        <mxCell id="BUbXl7JmyB8yxIihBI70-36" value="User Exists&lt;br&gt;User is Active&lt;br&gt;Password Matched" style="shape=process;whiteSpace=wrap;html=1;backgroundOutline=1;size=0.05434782608695652;" parent="BUbXl7JmyB8yxIihBI70-1" vertex="1">
          <mxGeometry x="194" y="84" width="184" height="60" as="geometry" />
        </mxCell>
        <mxCell id="-Q2xNWVYHDLpzL2ybHYI-6" value="" style="edgeStyle=orthogonalEdgeStyle;rounded=0;orthogonalLoop=1;jettySize=auto;html=1;dashed=1;endArrow=none;endFill=0;" parent="BUbXl7JmyB8yxIihBI70-1" source="BUbXl7JmyB8yxIihBI70-38" target="-Q2xNWVYHDLpzL2ybHYI-3" edge="1">
          <mxGeometry relative="1" as="geometry" />
        </mxCell>
        <mxCell id="-Q2xNWVYHDLpzL2ybHYI-8" value="" style="edgeStyle=orthogonalEdgeStyle;rounded=0;orthogonalLoop=1;jettySize=auto;html=1;" parent="BUbXl7JmyB8yxIihBI70-1" source="BUbXl7JmyB8yxIihBI70-38" target="BUbXl7JmyB8yxIihBI70-39" edge="1">
          <mxGeometry relative="1" as="geometry" />
        </mxCell>
        <mxCell id="nKK0pmu8n8xV0yD4BEuD-1" value="Success" style="edgeLabel;html=1;align=center;verticalAlign=middle;resizable=0;points=[];" parent="-Q2xNWVYHDLpzL2ybHYI-8" vertex="1" connectable="0">
          <mxGeometry x="-0.5733" y="1" relative="1" as="geometry">
            <mxPoint as="offset" />
          </mxGeometry>
        </mxCell>
        <mxCell id="BUbXl7JmyB8yxIihBI70-38" value="Generate Token" style="rounded=0;whiteSpace=wrap;html=1;" parent="BUbXl7JmyB8yxIihBI70-1" vertex="1">
          <mxGeometry x="226" y="174" width="120" height="60" as="geometry" />
        </mxCell>
        <mxCell id="-Q2xNWVYHDLpzL2ybHYI-2" value="" style="edgeStyle=orthogonalEdgeStyle;rounded=0;orthogonalLoop=1;jettySize=auto;html=1;" parent="BUbXl7JmyB8yxIihBI70-1" source="BUbXl7JmyB8yxIihBI70-39" target="-Q2xNWVYHDLpzL2ybHYI-1" edge="1">
          <mxGeometry relative="1" as="geometry" />
        </mxCell>
        <mxCell id="-Q2xNWVYHDLpzL2ybHYI-9" value="UPDATE" style="edgeLabel;html=1;align=center;verticalAlign=middle;resizable=0;points=[];" parent="-Q2xNWVYHDLpzL2ybHYI-2" vertex="1" connectable="0">
          <mxGeometry x="-0.193" y="-2" relative="1" as="geometry">
            <mxPoint x="8" y="-2" as="offset" />
          </mxGeometry>
        </mxCell>
        <mxCell id="-Q2xNWVYHDLpzL2ybHYI-13" value="" style="edgeStyle=orthogonalEdgeStyle;rounded=0;orthogonalLoop=1;jettySize=auto;html=1;" parent="BUbXl7JmyB8yxIihBI70-1" source="BUbXl7JmyB8yxIihBI70-39" target="-Q2xNWVYHDLpzL2ybHYI-10" edge="1">
          <mxGeometry relative="1" as="geometry" />
        </mxCell>
        <mxCell id="nKK0pmu8n8xV0yD4BEuD-2" value="Success" style="edgeLabel;html=1;align=center;verticalAlign=middle;resizable=0;points=[];" parent="-Q2xNWVYHDLpzL2ybHYI-13" vertex="1" connectable="0">
          <mxGeometry x="0.3267" y="-2" relative="1" as="geometry">
            <mxPoint x="2" y="-5" as="offset" />
          </mxGeometry>
        </mxCell>
        <mxCell id="BUbXl7JmyB8yxIihBI70-39" value="Update User with token info in the database" style="rounded=0;whiteSpace=wrap;html=1;" parent="BUbXl7JmyB8yxIihBI70-1" vertex="1">
          <mxGeometry x="226" y="264" width="120" height="60" as="geometry" />
        </mxCell>
        <mxCell id="-Q2xNWVYHDLpzL2ybHYI-1" value="Database" style="strokeWidth=2;html=1;shape=mxgraph.flowchart.database;whiteSpace=wrap;" parent="BUbXl7JmyB8yxIihBI70-1" vertex="1">
          <mxGeometry x="435" y="269" width="60" height="50" as="geometry" />
        </mxCell>
        <mxCell id="-Q2xNWVYHDLpzL2ybHYI-3" value="1. Token length - 8&lt;br&gt;2. Token Expiration time - 15min" style="shape=note;whiteSpace=wrap;html=1;backgroundOutline=1;darkOpacity=0.05;size=29;align=left;fillColor=#ffe6cc;strokeColor=#d79b00;" parent="BUbXl7JmyB8yxIihBI70-1" vertex="1">
          <mxGeometry x="403" y="174" width="185" height="60" as="geometry" />
        </mxCell>
        <mxCell id="-Q2xNWVYHDLpzL2ybHYI-12" value="" style="edgeStyle=orthogonalEdgeStyle;rounded=0;orthogonalLoop=1;jettySize=auto;html=1;" parent="BUbXl7JmyB8yxIihBI70-1" source="-Q2xNWVYHDLpzL2ybHYI-10" target="-Q2xNWVYHDLpzL2ybHYI-11" edge="1">
          <mxGeometry relative="1" as="geometry" />
        </mxCell>
        <mxCell id="-Q2xNWVYHDLpzL2ybHYI-17" value="" style="edgeStyle=orthogonalEdgeStyle;rounded=0;orthogonalLoop=1;jettySize=auto;html=1;" parent="BUbXl7JmyB8yxIihBI70-1" source="-Q2xNWVYHDLpzL2ybHYI-10" target="-Q2xNWVYHDLpzL2ybHYI-16" edge="1">
          <mxGeometry relative="1" as="geometry" />
        </mxCell>
        <mxCell id="nKK0pmu8n8xV0yD4BEuD-3" value="Success" style="edgeLabel;html=1;align=center;verticalAlign=middle;resizable=0;points=[];" parent="-Q2xNWVYHDLpzL2ybHYI-17" vertex="1" connectable="0">
          <mxGeometry x="-0.6526" relative="1" as="geometry">
            <mxPoint as="offset" />
          </mxGeometry>
        </mxCell>
        <mxCell id="63Sym3_QJ1IBtuDzFbQc-3" style="edgeStyle=orthogonalEdgeStyle;rounded=0;orthogonalLoop=1;jettySize=auto;html=1;exitX=1;exitY=0.25;exitDx=0;exitDy=0;entryX=0;entryY=0.25;entryDx=0;entryDy=0;strokeWidth=3;fillColor=#60a917;strokeColor=#63EB0F;endArrow=classic;endFill=1;dashed=1;flowAnimation=1;" parent="BUbXl7JmyB8yxIihBI70-1" source="-Q2xNWVYHDLpzL2ybHYI-10" target="-Q2xNWVYHDLpzL2ybHYI-11" edge="1">
          <mxGeometry relative="1" as="geometry" />
        </mxCell>
        <mxCell id="-Q2xNWVYHDLpzL2ybHYI-10" value="Send token via &lt;br&gt;Email&amp;nbsp;" style="rounded=0;whiteSpace=wrap;html=1;" parent="BUbXl7JmyB8yxIihBI70-1" vertex="1">
          <mxGeometry x="226" y="358" width="120" height="60" as="geometry" />
        </mxCell>
        <mxCell id="-Q2xNWVYHDLpzL2ybHYI-11" value="SMTP Server" style="shape=process;whiteSpace=wrap;html=1;backgroundOutline=1;size=0.034523809523809255;" parent="BUbXl7JmyB8yxIihBI70-1" vertex="1">
          <mxGeometry x="430" y="358" width="120" height="60" as="geometry" />
        </mxCell>
        <mxCell id="_0PAr6XL9lyC_KDBDkuF-16" value="" style="edgeStyle=orthogonalEdgeStyle;rounded=0;orthogonalLoop=1;jettySize=auto;html=1;" parent="BUbXl7JmyB8yxIihBI70-1" source="-Q2xNWVYHDLpzL2ybHYI-16" target="-Q2xNWVYHDLpzL2ybHYI-18" edge="1">
          <mxGeometry relative="1" as="geometry" />
        </mxCell>
        <mxCell id="DS8ugYMYY_m8izW3VN1D-7" style="edgeStyle=orthogonalEdgeStyle;rounded=0;orthogonalLoop=1;jettySize=auto;html=1;exitX=0;exitY=0.25;exitDx=0;exitDy=0;entryX=0;entryY=0.75;entryDx=0;entryDy=0;curved=1;strokeWidth=3;endArrow=classic;endFill=1;dashed=1;fillColor=#0050ef;strokeColor=#001DBC;flowAnimation=1;" parent="BUbXl7JmyB8yxIihBI70-1" source="-Q2xNWVYHDLpzL2ybHYI-16" target="BUbXl7JmyB8yxIihBI70-38" edge="1">
          <mxGeometry relative="1" as="geometry">
            <Array as="points">
              <mxPoint x="100" y="459" />
              <mxPoint x="100" y="219" />
            </Array>
          </mxGeometry>
        </mxCell>
        <mxCell id="-Q2xNWVYHDLpzL2ybHYI-16" value="MFA&lt;br style=&quot;border-color: var(--border-color);&quot;&gt;Verification UI" style="rounded=0;whiteSpace=wrap;html=1;" parent="BUbXl7JmyB8yxIihBI70-1" vertex="1">
          <mxGeometry x="226" y="444" width="120" height="60" as="geometry" />
        </mxCell>
        <mxCell id="-Q2xNWVYHDLpzL2ybHYI-33" value="" style="edgeStyle=orthogonalEdgeStyle;rounded=0;orthogonalLoop=1;jettySize=auto;html=1;endArrow=none;endFill=0;dashed=1;" parent="BUbXl7JmyB8yxIihBI70-1" source="-Q2xNWVYHDLpzL2ybHYI-18" target="-Q2xNWVYHDLpzL2ybHYI-32" edge="1">
          <mxGeometry relative="1" as="geometry" />
        </mxCell>
        <mxCell id="-Q2xNWVYHDLpzL2ybHYI-37" value="" style="edgeStyle=orthogonalEdgeStyle;rounded=0;orthogonalLoop=1;jettySize=auto;html=1;" parent="BUbXl7JmyB8yxIihBI70-1" source="-Q2xNWVYHDLpzL2ybHYI-18" target="-Q2xNWVYHDLpzL2ybHYI-31" edge="1">
          <mxGeometry relative="1" as="geometry" />
        </mxCell>
        <mxCell id="-Q2xNWVYHDLpzL2ybHYI-18" value="Enters MFA token then&lt;br&gt;Click on &lt;br&gt;&quot;Validate&quot; Submit button" style="shape=parallelogram;perimeter=parallelogramPerimeter;whiteSpace=wrap;html=1;fixedSize=1;" parent="BUbXl7JmyB8yxIihBI70-1" vertex="1">
          <mxGeometry x="203.5" y="544" width="165" height="60" as="geometry" />
        </mxCell>
        <mxCell id="_0PAr6XL9lyC_KDBDkuF-13" style="edgeStyle=orthogonalEdgeStyle;rounded=0;orthogonalLoop=1;jettySize=auto;html=1;entryX=0;entryY=0.5;entryDx=0;entryDy=0;" parent="BUbXl7JmyB8yxIihBI70-1" source="-Q2xNWVYHDLpzL2ybHYI-20" target="BUbXl7JmyB8yxIihBI70-38" edge="1">
          <mxGeometry relative="1" as="geometry">
            <Array as="points">
              <mxPoint x="100" y="204" />
            </Array>
          </mxGeometry>
        </mxCell>
        <mxCell id="-Q2xNWVYHDLpzL2ybHYI-20" value="User clicks&lt;br&gt;&quot;Resend Token&quot; submit button" style="shape=parallelogram;perimeter=parallelogramPerimeter;whiteSpace=wrap;html=1;fixedSize=1;" parent="BUbXl7JmyB8yxIihBI70-1" vertex="1">
          <mxGeometry x="32" y="314" width="160" height="60" as="geometry" />
        </mxCell>
        <mxCell id="-Q2xNWVYHDLpzL2ybHYI-38" value="" style="edgeStyle=orthogonalEdgeStyle;rounded=0;orthogonalLoop=1;jettySize=auto;html=1;endArrow=none;endFill=0;dashed=1;" parent="BUbXl7JmyB8yxIihBI70-1" source="-Q2xNWVYHDLpzL2ybHYI-24" target="-Q2xNWVYHDLpzL2ybHYI-36" edge="1">
          <mxGeometry relative="1" as="geometry" />
        </mxCell>
        <mxCell id="-Q2xNWVYHDLpzL2ybHYI-42" value="" style="edgeStyle=orthogonalEdgeStyle;rounded=0;orthogonalLoop=1;jettySize=auto;html=1;" parent="BUbXl7JmyB8yxIihBI70-1" source="-Q2xNWVYHDLpzL2ybHYI-24" target="-Q2xNWVYHDLpzL2ybHYI-41" edge="1">
          <mxGeometry relative="1" as="geometry" />
        </mxCell>
        <mxCell id="-Q2xNWVYHDLpzL2ybHYI-43" value="NO" style="edgeLabel;html=1;align=center;verticalAlign=middle;resizable=0;points=[];" parent="-Q2xNWVYHDLpzL2ybHYI-42" vertex="1" connectable="0">
          <mxGeometry x="-0.0815" y="2" relative="1" as="geometry">
            <mxPoint as="offset" />
          </mxGeometry>
        </mxCell>
        <mxCell id="_0PAr6XL9lyC_KDBDkuF-7" value="" style="edgeStyle=orthogonalEdgeStyle;rounded=0;orthogonalLoop=1;jettySize=auto;html=1;" parent="BUbXl7JmyB8yxIihBI70-1" source="-Q2xNWVYHDLpzL2ybHYI-24" target="_0PAr6XL9lyC_KDBDkuF-5" edge="1">
          <mxGeometry relative="1" as="geometry" />
        </mxCell>
        <mxCell id="_0PAr6XL9lyC_KDBDkuF-10" value="YES" style="edgeLabel;html=1;align=center;verticalAlign=middle;resizable=0;points=[];" parent="_0PAr6XL9lyC_KDBDkuF-7" vertex="1" connectable="0">
          <mxGeometry x="-0.2845" relative="1" as="geometry">
            <mxPoint as="offset" />
          </mxGeometry>
        </mxCell>
        <mxCell id="DS8ugYMYY_m8izW3VN1D-10" style="edgeStyle=orthogonalEdgeStyle;rounded=0;orthogonalLoop=1;jettySize=auto;html=1;exitX=0;exitY=0;exitDx=0;exitDy=0;strokeWidth=3;dashed=1;strokeColor=#FF2212;flowAnimation=1;endArrow=none;endFill=0;" parent="BUbXl7JmyB8yxIihBI70-1" source="-Q2xNWVYHDLpzL2ybHYI-24" edge="1">
          <mxGeometry relative="1" as="geometry">
            <mxPoint x="204.76470588235293" y="763.7647058823529" as="targetPoint" />
          </mxGeometry>
        </mxCell>
        <mxCell id="-Q2xNWVYHDLpzL2ybHYI-24" value="Is Valid &lt;br&gt;token?" style="rhombus;whiteSpace=wrap;html=1;" parent="BUbXl7JmyB8yxIihBI70-1" vertex="1">
          <mxGeometry x="246" y="745" width="80" height="80" as="geometry" />
        </mxCell>
        <mxCell id="-Q2xNWVYHDLpzL2ybHYI-34" value="" style="edgeStyle=orthogonalEdgeStyle;rounded=0;orthogonalLoop=1;jettySize=auto;html=1;" parent="BUbXl7JmyB8yxIihBI70-1" source="-Q2xNWVYHDLpzL2ybHYI-26" target="-Q2xNWVYHDLpzL2ybHYI-31" edge="1">
          <mxGeometry relative="1" as="geometry" />
        </mxCell>
        <mxCell id="DS8ugYMYY_m8izW3VN1D-8" style="edgeStyle=orthogonalEdgeStyle;rounded=0;orthogonalLoop=1;jettySize=auto;html=1;exitX=0;exitY=0.85;exitDx=0;exitDy=0;exitPerimeter=0;dashed=1;strokeWidth=3;endArrow=classic;endFill=1;flowAnimation=1;fillColor=#60a917;strokeColor=#61FF00;" parent="BUbXl7JmyB8yxIihBI70-1" source="-Q2xNWVYHDLpzL2ybHYI-26" edge="1">
          <mxGeometry relative="1" as="geometry">
            <mxPoint x="345.8333333333335" y="691.3333333333335" as="targetPoint" />
          </mxGeometry>
        </mxCell>
        <mxCell id="-Q2xNWVYHDLpzL2ybHYI-26" value="Database" style="strokeWidth=2;html=1;shape=mxgraph.flowchart.database;whiteSpace=wrap;" parent="BUbXl7JmyB8yxIihBI70-1" vertex="1">
          <mxGeometry x="536.5" y="649" width="60" height="50" as="geometry" />
        </mxCell>
        <mxCell id="-Q2xNWVYHDLpzL2ybHYI-35" value="" style="edgeStyle=orthogonalEdgeStyle;rounded=0;orthogonalLoop=1;jettySize=auto;html=1;" parent="BUbXl7JmyB8yxIihBI70-1" source="-Q2xNWVYHDLpzL2ybHYI-31" target="-Q2xNWVYHDLpzL2ybHYI-24" edge="1">
          <mxGeometry relative="1" as="geometry" />
        </mxCell>
        <mxCell id="-Q2xNWVYHDLpzL2ybHYI-31" value="Get the stored token for the user from the Database" style="rounded=0;whiteSpace=wrap;html=1;" parent="BUbXl7JmyB8yxIihBI70-1" vertex="1">
          <mxGeometry x="226" y="644" width="120" height="60" as="geometry" />
        </mxCell>
        <mxCell id="-Q2xNWVYHDLpzL2ybHYI-32" value="1. User enters MFA token received in their email address&lt;br&gt;2. Submit the form" style="shape=note;whiteSpace=wrap;backgroundOutline=1;darkOpacity=0.05;size=29;align=left;fillColor=#ffe6cc;strokeColor=#d79b00;html=1;" parent="BUbXl7JmyB8yxIihBI70-1" vertex="1">
          <mxGeometry x="406.5" y="539" width="180" height="70" as="geometry" />
        </mxCell>
        <mxCell id="-Q2xNWVYHDLpzL2ybHYI-36" value="1. Compares stored token&lt;br&gt;2. Check for token not expired" style="shape=note;whiteSpace=wrap;backgroundOutline=1;darkOpacity=0.05;size=29;align=left;fillColor=#ffe6cc;strokeColor=#d79b00;html=1;" parent="BUbXl7JmyB8yxIihBI70-1" vertex="1">
          <mxGeometry x="356.5" y="750" width="180" height="70" as="geometry" />
        </mxCell>
        <mxCell id="_0PAr6XL9lyC_KDBDkuF-2" value="" style="edgeStyle=orthogonalEdgeStyle;rounded=0;orthogonalLoop=1;jettySize=auto;html=1;" parent="BUbXl7JmyB8yxIihBI70-1" source="-Q2xNWVYHDLpzL2ybHYI-39" target="_0PAr6XL9lyC_KDBDkuF-1" edge="1">
          <mxGeometry relative="1" as="geometry" />
        </mxCell>
        <mxCell id="-Q2xNWVYHDLpzL2ybHYI-39" value="Landing page" style="shape=process;whiteSpace=wrap;html=1;backgroundOutline=1;size=0.04345238095238055;" parent="BUbXl7JmyB8yxIihBI70-1" vertex="1">
          <mxGeometry x="226" y="956" width="120" height="60" as="geometry" />
        </mxCell>
        <mxCell id="DS8ugYMYY_m8izW3VN1D-11" style="edgeStyle=orthogonalEdgeStyle;rounded=0;orthogonalLoop=1;jettySize=auto;html=1;entryX=0;entryY=0.75;entryDx=0;entryDy=0;curved=1;dashed=1;strokeColor=#FF1F0F;strokeWidth=3;endArrow=none;endFill=0;flowAnimation=1;" parent="BUbXl7JmyB8yxIihBI70-1" target="-Q2xNWVYHDLpzL2ybHYI-16" edge="1">
          <mxGeometry relative="1" as="geometry">
            <mxPoint x="150" y="815" as="sourcePoint" />
            <Array as="points">
              <mxPoint x="160" y="815" />
              <mxPoint x="160" y="490" />
              <mxPoint x="226" y="490" />
            </Array>
          </mxGeometry>
        </mxCell>
        <mxCell id="-Q2xNWVYHDLpzL2ybHYI-41" value="Invalid Token error &lt;br&gt;will be shown &lt;br&gt;to the user" style="shape=parallelogram;perimeter=parallelogramPerimeter;whiteSpace=wrap;html=1;fixedSize=1;" parent="BUbXl7JmyB8yxIihBI70-1" vertex="1">
          <mxGeometry x="64" y="755" width="142.5" height="60" as="geometry" />
        </mxCell>
        <mxCell id="nKK0pmu8n8xV0yD4BEuD-7" style="edgeStyle=orthogonalEdgeStyle;rounded=0;orthogonalLoop=1;jettySize=auto;html=1;exitX=1;exitY=0.5;exitDx=0;exitDy=0;entryX=1;entryY=0.5;entryDx=0;entryDy=0;endArrow=none;endFill=0;startArrow=classic;startFill=1;" parent="BUbXl7JmyB8yxIihBI70-1" source="_0PAr6XL9lyC_KDBDkuF-1" target="nKK0pmu8n8xV0yD4BEuD-4" edge="1">
          <mxGeometry relative="1" as="geometry" />
        </mxCell>
        <mxCell id="nKK0pmu8n8xV0yD4BEuD-8" value="Failure" style="edgeLabel;html=1;align=center;verticalAlign=middle;resizable=0;points=[];" parent="nKK0pmu8n8xV0yD4BEuD-7" vertex="1" connectable="0">
          <mxGeometry x="-0.6077" y="-2" relative="1" as="geometry">
            <mxPoint y="-2" as="offset" />
          </mxGeometry>
        </mxCell>
        <mxCell id="_0PAr6XL9lyC_KDBDkuF-1" value="END" style="rounded=1;whiteSpace=wrap;html=1;fontSize=12;glass=0;strokeWidth=1;shadow=0;arcSize=50;" parent="BUbXl7JmyB8yxIihBI70-1" vertex="1">
          <mxGeometry x="251" y="1042" width="70" height="30" as="geometry" />
        </mxCell>
        <mxCell id="_0PAr6XL9lyC_KDBDkuF-6" style="edgeStyle=orthogonalEdgeStyle;rounded=0;orthogonalLoop=1;jettySize=auto;html=1;" parent="BUbXl7JmyB8yxIihBI70-1" source="_0PAr6XL9lyC_KDBDkuF-5" target="-Q2xNWVYHDLpzL2ybHYI-26" edge="1">
          <mxGeometry relative="1" as="geometry" />
        </mxCell>
        <mxCell id="_0PAr6XL9lyC_KDBDkuF-9" value="" style="edgeStyle=orthogonalEdgeStyle;rounded=0;orthogonalLoop=1;jettySize=auto;html=1;" parent="BUbXl7JmyB8yxIihBI70-1" source="_0PAr6XL9lyC_KDBDkuF-5" target="-Q2xNWVYHDLpzL2ybHYI-39" edge="1">
          <mxGeometry relative="1" as="geometry" />
        </mxCell>
        <mxCell id="_0PAr6XL9lyC_KDBDkuF-5" value="Invalidate the token for future use" style="rounded=0;whiteSpace=wrap;html=1;" parent="BUbXl7JmyB8yxIihBI70-1" vertex="1">
          <mxGeometry x="226" y="865" width="120" height="60" as="geometry" />
        </mxCell>
        <mxCell id="_0PAr6XL9lyC_KDBDkuF-14" style="edgeStyle=orthogonalEdgeStyle;rounded=0;orthogonalLoop=1;jettySize=auto;html=1;entryX=0.45;entryY=1.05;entryDx=0;entryDy=0;entryPerimeter=0;" parent="BUbXl7JmyB8yxIihBI70-1" source="-Q2xNWVYHDLpzL2ybHYI-16" target="-Q2xNWVYHDLpzL2ybHYI-20" edge="1">
          <mxGeometry relative="1" as="geometry" />
        </mxCell>
        <mxCell id="_0PAr6XL9lyC_KDBDkuF-15" value="Resend Token" style="edgeLabel;html=1;align=center;verticalAlign=middle;resizable=0;points=[];" parent="_0PAr6XL9lyC_KDBDkuF-14" vertex="1" connectable="0">
          <mxGeometry x="-0.3853" y="-3" relative="1" as="geometry">
            <mxPoint as="offset" />
          </mxGeometry>
        </mxCell>
        <mxCell id="63Sym3_QJ1IBtuDzFbQc-4" style="edgeStyle=orthogonalEdgeStyle;rounded=0;orthogonalLoop=1;jettySize=auto;html=1;exitX=1;exitY=0.25;exitDx=0;exitDy=0;entryX=-0.006;entryY=0.225;entryDx=0;entryDy=0;entryPerimeter=0;fillColor=#60a917;strokeColor=#63EB0F;strokeWidth=3;endArrow=classic;endFill=1;dashed=1;flowAnimation=1;" parent="BUbXl7JmyB8yxIihBI70-1" source="BUbXl7JmyB8yxIihBI70-39" target="-Q2xNWVYHDLpzL2ybHYI-1" edge="1">
          <mxGeometry relative="1" as="geometry" />
        </mxCell>
        <mxCell id="DS8ugYMYY_m8izW3VN1D-1" value="" style="endArrow=none;html=1;rounded=0;dashed=1;strokeWidth=3;fillColor=#60a917;strokeColor=#61FF00;" parent="BUbXl7JmyB8yxIihBI70-1" edge="1">
          <mxGeometry width="50" height="50" relative="1" as="geometry">
            <mxPoint x="470" y="48" as="sourcePoint" />
            <mxPoint x="527" y="48" as="targetPoint" />
          </mxGeometry>
        </mxCell>
        <mxCell id="DS8ugYMYY_m8izW3VN1D-2" value="Succesful flow" style="edgeLabel;html=1;align=center;verticalAlign=middle;resizable=0;points=[];" parent="DS8ugYMYY_m8izW3VN1D-1" vertex="1" connectable="0">
          <mxGeometry x="0.6082" y="-1" relative="1" as="geometry">
            <mxPoint x="30" y="-1" as="offset" />
          </mxGeometry>
        </mxCell>
        <mxCell id="DS8ugYMYY_m8izW3VN1D-3" value="" style="endArrow=none;html=1;rounded=0;dashed=1;strokeColor=#001DBC;strokeWidth=3;fillColor=#0050ef;" parent="BUbXl7JmyB8yxIihBI70-1" edge="1">
          <mxGeometry width="50" height="50" relative="1" as="geometry">
            <mxPoint x="470" y="63" as="sourcePoint" />
            <mxPoint x="527" y="63" as="targetPoint" />
          </mxGeometry>
        </mxCell>
        <mxCell id="DS8ugYMYY_m8izW3VN1D-4" value="Alternate flow" style="edgeLabel;html=1;align=center;verticalAlign=middle;resizable=0;points=[];" parent="DS8ugYMYY_m8izW3VN1D-3" vertex="1" connectable="0">
          <mxGeometry x="0.4971" y="1" relative="1" as="geometry">
            <mxPoint x="33" y="1" as="offset" />
          </mxGeometry>
        </mxCell>
        <mxCell id="DS8ugYMYY_m8izW3VN1D-9" style="edgeStyle=orthogonalEdgeStyle;rounded=0;orthogonalLoop=1;jettySize=auto;html=1;exitX=1;exitY=0.75;exitDx=0;exitDy=0;entryX=0.725;entryY=0.98;entryDx=0;entryDy=0;entryPerimeter=0;dashed=1;strokeWidth=3;fillColor=#60a917;strokeColor=#61FF00;flowAnimation=1;" parent="BUbXl7JmyB8yxIihBI70-1" source="_0PAr6XL9lyC_KDBDkuF-5" target="-Q2xNWVYHDLpzL2ybHYI-26" edge="1">
          <mxGeometry relative="1" as="geometry" />
        </mxCell>
        <mxCell id="eeuPYVRVaadb-bhYwqa6-3" style="edgeStyle=orthogonalEdgeStyle;rounded=0;orthogonalLoop=1;jettySize=auto;html=1;entryX=-0.005;entryY=0.947;entryDx=0;entryDy=0;entryPerimeter=0;" parent="BUbXl7JmyB8yxIihBI70-1" source="-Q2xNWVYHDLpzL2ybHYI-41" target="-Q2xNWVYHDLpzL2ybHYI-16" edge="1">
          <mxGeometry relative="1" as="geometry">
            <Array as="points">
              <mxPoint x="140" y="501" />
            </Array>
          </mxGeometry>
        </mxCell>
        <mxCell id="eeuPYVRVaadb-bhYwqa6-4" value="Text" style="edgeLabel;html=1;align=center;verticalAlign=middle;resizable=0;points=[];" parent="eeuPYVRVaadb-bhYwqa6-3" vertex="1" connectable="0">
          <mxGeometry x="-0.251" y="-3" relative="1" as="geometry">
            <mxPoint as="offset" />
          </mxGeometry>
        </mxCell>
        <mxCell id="eeuPYVRVaadb-bhYwqa6-5" value="Failure" style="edgeLabel;html=1;align=center;verticalAlign=middle;resizable=0;points=[];" parent="eeuPYVRVaadb-bhYwqa6-3" vertex="1" connectable="0">
          <mxGeometry x="-0.2657" y="-1" relative="1" as="geometry">
            <mxPoint x="-1" as="offset" />
          </mxGeometry>
        </mxCell>
        <mxCell id="DS8ugYMYY_m8izW3VN1D-5" value="" style="endArrow=none;html=1;rounded=0;dashed=1;strokeColor=#FF3414;strokeWidth=3;" parent="1" edge="1">
          <mxGeometry width="50" height="50" relative="1" as="geometry">
            <mxPoint x="-320" y="118" as="sourcePoint" />
            <mxPoint x="-263" y="118" as="targetPoint" />
          </mxGeometry>
        </mxCell>
        <mxCell id="DS8ugYMYY_m8izW3VN1D-6" value="Failure flow" style="edgeLabel;html=1;align=center;verticalAlign=middle;resizable=0;points=[];" parent="DS8ugYMYY_m8izW3VN1D-5" vertex="1" connectable="0">
          <mxGeometry x="0.4971" y="1" relative="1" as="geometry">
            <mxPoint x="26" y="1" as="offset" />
          </mxGeometry>
        </mxCell>
      </root>
    </mxGraphModel>
  </diagram>
</mxfile>
